<?xml version="1.0" encoding="UTF-8"?>
<!DOCTYPE svg PUBLIC "-//W3C//DTD SVG 1.1//EN" "http://www.w3.org/Graphics/SVG/1.1/DTD/svg11.dtd">
<!-- Creator: CorelDRAW (Versión de evaluación) -->
<svg xmlns="http://www.w3.org/2000/svg" xml:space="preserve" width="1.30539in" height="1.56604in" version="1.1" style="shape-rendering:geometricPrecision; text-rendering:geometricPrecision; image-rendering:optimizeQuality; fill-rule:evenodd; clip-rule:evenodd"
viewBox="0 0 270.32 324.29"
 xmlns:xlink="http://www.w3.org/1999/xlink"
 xmlns:xodm="http://www.corel.com/coreldraw/odm/2003">
 <defs>
  <style type="text/css">
   <![CDATA[
    .fil0 {fill:black}
   ]]>
  </style>
 </defs>
 <g id="Capa_x0020_1">
  <metadata id="CorelCorpID_0Corel-Layer"/>
  <path class="fil0" d="M112.15 209.27l20.13 25.88 -57.52 0 1.38 -60.27 17.94 20.12c64.24,-43.65 104.33,6.09 99.58,46.83 -8.1,69.45 -87.91,63.57 -106.43,27.85l16.29 -14.4c8.15,5.46 15.22,14.38 28.76,14.38 63.75,0 36.98,-98.63 -20.13,-60.39zm-112.15 -40.26l0 120.78c0,22.23 12.27,34.51 34.51,34.51l201.3 0c22.23,0 34.51,-12.28 34.51,-34.51l0 -120.78c0,-14.46 -14.3,-28.76 -28.76,-28.76l-212.8 0c-14.46,0 -28.76,14.3 -28.76,28.76zm28.76 -55.3l40.26 0c-0.01,-96.09 132.27,-95.39 132.28,0l38.75 0c0,-37.43 -31.55,-113.7 -103.32,-113.7 -71.76,0 -107.97,61.74 -107.97,113.7z"/>
 </g>
</svg>
